<svg xmlns="http://www.w3.org/2000/svg" width="4.516cm" height=".67cm">
    <path fill="#FFF" fill-rule="evenodd" d="M120.621 11.152V.753h1.575v9.299h5.679v1.1h-7.254zM107.979.753h7.087V1.86h-5.511v3.364h4.783v1.107h-4.783v3.721h5.599v1.1h-7.175V.753zm-9.098 10.399h-1.575V1.86h-3.792V.753h9.206V1.86h-3.839v9.292zm-8.783 3.664h2.726v.426h-2.12v1.294h1.84v.426h-1.84v1.431h2.154v.423h-2.76v-4zm-5.938-3.514c-1.359 0-2.464-.419-3.315-1.257-.85-.838-1.276-1.893-1.276-3.164v-1.85c0-1.266.426-2.321 1.276-3.164.851-.842 1.956-1.264 3.315-1.264 1.408 0 2.553.421 3.435 1.261.883.84 1.324 1.896 1.324 3.167v1.85c0 1.271-.441 2.326-1.324 3.164-.882.838-2.027 1.257-3.435 1.257zm3.184-6.285c0-.952-.288-1.733-.864-2.342-.576-.61-1.349-.915-2.32-.915-.917 0-1.649.305-2.195.915-.547.609-.82 1.39-.82 2.342v1.864c0 .962.273 1.747.82 2.357.546.609 1.278.914 2.195.914.976 0 1.75-.304 2.324-.911.573-.607.86-1.393.86-2.36V5.017zM80.62 15.243c.34.324.509.73.509 1.219v.711c0 .489-.169.895-.509 1.217-.339.322-.78.483-1.321.483-.523 0-.948-.161-1.275-.483-.327-.322-.491-.728-.491-1.217v-.711c0-.487.164-.893.491-1.217.327-.324.752-.486 1.275-.486.541 0 .982.161 1.321.484zm-1.321-.039c-.353 0-.634.117-.844.351-.211.235-.316.535-.316.901v.717c0 .37.105.672.316.907.21.234.491.351.844.351.375 0 .673-.117.894-.35.22-.234.33-.536.33-.908v-.717c0-.366-.11-.666-.332-.901-.221-.234-.519-.351-.892-.351zm-5.447 1.845h-2.175v1.767h-.606v-4h.606v1.808h2.175v-1.808h.606v4h-.606v-1.767zM72.127 6.56h-5.655v4.592h-1.575V.753h1.575v4.7h5.655v-4.7h1.575v10.399h-1.575V6.56zm-9.265 12.256h-.603v-1.448l-1.547-2.552h.692l1.169 2.033 1.169-2.033h.692l-1.572 2.593v1.407zm-5.358-.275c-.023-.121-.034-.245-.034-.374v-.365c0-.216-.071-.39-.212-.522-.142-.132-.332-.198-.569-.198h-1.037v1.734h-.606v-3.997h1.532c.49 0 .864.097 1.123.291.258.194.387.476.387.846 0 .205-.06.384-.18.536-.12.152-.295.273-.524.362.246.072.423.188.53.348.108.16.162.358.162.595v.376c0 .125.015.236.046.335.031.099.084.18.16.242v.066h-.624c-.08-.063-.132-.154-.154-.275zm-.022-2.59c0-.226-.073-.4-.22-.524-.146-.123-.374-.185-.684-.185h-.926v1.415h.864c.343 0 .589-.058.74-.175.151-.116.226-.293.226-.531zm-7.317 2.922c-.486 0-.884-.124-1.194-.372-.31-.248-.464-.591-.464-1.028v-2.657h.606v2.657c0 .305.097.545.293.718.196.173.449.259.759.259.328 0 .595-.086.801-.259.206-.173.309-.413.309-.718v-2.657h.606v2.657c0 .439-.16.782-.48 1.03-.32.247-.732.37-1.236.37zm-3.577-7.571c-1.36 0-2.465-.419-3.315-1.257-.851-.838-1.276-1.893-1.276-3.164v-1.85c0-1.266.425-2.321 1.276-3.164.85-.842 1.955-1.264 3.315-1.264 1.408 0 2.553.421 3.435 1.261.883.84 1.324 1.896 1.324 3.167v1.85c0 1.271-.441 2.326-1.324 3.164-.882.838-2.027 1.257-3.435 1.257zm3.183-6.285c0-.952-.288-1.733-.863-2.342-.576-.61-1.35-.915-2.32-.915-.917 0-1.649.305-2.195.915-.547.609-.82 1.39-.82 2.342v1.864c0 .962.273 1.747.82 2.357.546.609 1.278.914 2.195.914.976 0 1.75-.304 2.323-.911.574-.607.86-1.393.86-2.36V5.017zM37.507 18.873c-.486 0-.883-.124-1.193-.372-.31-.248-.465-.591-.465-1.028v-2.657h.606v2.657c0 .305.098.545.294.718.196.173.449.259.758.259.329 0 .596-.086.802-.259.206-.173.309-.413.309-.718v-2.657h.606v2.657c0 .439-.16.782-.48 1.03-.32.247-.732.37-1.237.37zm-5.488-7.571c-1.344 0-2.455-.398-3.335-1.193-.88-.795-1.32-1.823-1.32-3.085V4.881c0-1.261.424-2.29 1.272-3.085.848-.795 1.941-1.193 3.279-1.193 1.296 0 2.32.309 3.071.925.752.617 1.117 1.401 1.096 2.353l-.016.043h-1.512c0-.633-.229-1.16-.687-1.582-.459-.421-1.109-.632-1.952-.632-.89 0-1.607.298-2.151.893-.544.595-.816 1.35-.816 2.264v2.157c0 .924.288 1.684.864 2.282.576.597 1.311.896 2.207.896.688 0 1.233-.08 1.636-.239.402-.16.702-.349.899-.568V7.052h-2.639V5.953h4.215v3.799c-.277.386-.758.74-1.444 1.064-.685.324-1.574.486-2.667.486zm-14.897 0c-1.359 0-2.464-.419-3.315-1.257-.85-.838-1.276-1.893-1.276-3.164v-1.85c0-1.266.426-2.321 1.276-3.164.851-.842 1.956-1.264 3.315-1.264 1.408 0 2.553.421 3.435 1.261.883.84 1.324 1.896 1.324 3.167v1.85c0 1.271-.441 2.326-1.324 3.164-.882.838-2.027 1.257-3.435 1.257zm3.184-6.285c0-.952-.288-1.733-.864-2.342-.576-.61-1.349-.915-2.32-.915-.917 0-1.649.305-2.195.915-.547.609-.82 1.39-.82 2.342v1.864c0 .962.273 1.747.82 2.357.546.609 1.278.914 2.195.914.976 0 1.751-.304 2.324-.911s.86-1.393.86-2.36V5.017zM.898.753h1.575v9.299h5.679v1.1H.898V.753zm30.125 17.64h2.185v.423h-2.79v-4h.605v3.577zM42.1 14.816h.726l1.039 1.56 1.046-1.56h.732l-1.421 1.983 1.452 2.017h-.723l-1.073-1.588-1.077 1.588h-.732l1.452-2.017-1.421-1.983zm45.156.426H85.78v3.574h-.606v-3.574h-1.458v-.426h3.54v.426zm9.129 3.151h2.184v.423h-2.79v-4h.606v3.577z"/>
</svg>
