<svg xmlns="http://www.w3.org/2000/svg" width="512" height="512" enable-background="new 0 0 511.999 511.999" viewBox="0 0 511.999 511.999">
    <path fill="#878787" d="M48.004 239.945H447.99V255.944H48.004zM128.002 171.948c0-6.616 5.384-12 12-12s12 5.384 12 12v4h15.999v-4c0-15.438-12.56-27.999-27.999-27.999s-27.999 12.56-27.999 27.999v59.998h15.999v-59.998z"/>
    <path fill="#878787" d="M136.003 207.948H152.00199999999998V223.947H136.003zM88.001 207.948H104V223.947H88.001zM511.988 439.733l-167.991.104v-26.018c50.117-10.016 87.998-54.351 87.998-107.371v-42.502h-15.999v42.502c0 51.553-41.942 93.496-93.495 93.496H173.498c-51.553 0-93.495-41.943-93.495-93.496v-42.502h-16v42.502c0 53.02 37.881 97.353 87.998 107.371v26.136L0 440.049l.01 15.999 511.989-.316-.011-15.999zm-183.99.113L168 439.945v-24.141c1.821.091 3.653.138 5.498.138H322.5c1.843 0 3.676-.047 5.498-.138v24.042zM479.994 71.95L495.994 71.95 495.994 55.951 463.995 55.951 463.995 79.951 455.995 79.951 455.995 95.949 479.994 95.949zM280 95.949L303.999 95.949 303.999 79.951 295.999 79.951 295.999 55.951 263.999 55.951 263.999 71.95 280 71.95zM327.997 79.95L431.995 79.95 431.995 175.948 447.995 175.948 447.995 63.951 311.999 63.951 311.999 175.948 327.997 175.948z"/>
    <path fill="#878787" d="M336.001 159.946H352.001V175.945H336.001zM359.997 159.946H375.997V175.945H359.997zM383.993 159.946H399.993V175.945H383.993zM407.999 159.946H423.99800000000005V175.945H407.999zM96.003 263.941H399.996V279.94H96.003z"/>
</svg>
