<svg xmlns="http://www.w3.org/2000/svg" width="512" height="512" enable-background="new 0 0 512.001 512.001" viewBox="0 0 512.001 512.001">
    <path fill="#878787" d="M0 327.788h16.011v32.196h15.663v-32.196h168.463v32.196H215.8v-32.196h16.011v-55.69H0v55.69zm15.663-40.027h200.484v24.364H15.663v-24.364zM280.191 272.098v55.69h16.011v32.196h15.663v-32.196h168.463v32.196h15.663v-32.196h16.011v-55.69H280.191zm216.146 40.027H295.854v-24.364h200.483v24.364zM199.788 263.919v-5.743c0-14.394-11.711-26.105-26.105-26.105H58.126c-14.394 0-26.105 11.711-26.105 26.105v5.743h15.663v-5.743c0-5.758 4.684-10.442 10.442-10.442h115.558c5.758 0 10.442 4.684 10.442 10.442v5.743h15.662zM479.979 263.919v-5.743c0-14.394-11.711-26.105-26.105-26.105H338.317c-14.394 0-26.105 11.711-26.105 26.105v5.743h15.663v-5.743c0-5.758 4.684-10.442 10.442-10.442h115.558c5.758 0 10.442 4.684 10.442 10.442v5.743h15.662z"/>
    <path fill="#878787" d="M23.669 167.68L208.141 167.68 208.141 263.919 223.804 263.919 223.804 152.017 8.006 152.017 8.006 263.919 23.669 263.919z"/>
    <path fill="#878787" d="M167.767 223.891v-9.936c0-12.082-9.83-21.911-21.911-21.911h-59.9c-12.082 0-21.911 9.83-21.911 21.911v9.936h15.663v-9.936c0-3.446 2.804-6.248 6.248-6.248h59.899c3.446 0 6.248 2.804 6.248 6.248v9.936h15.664zM303.859 167.68L488.332 167.68 488.332 263.919 503.995 263.919 503.995 152.017 288.196 152.017 288.196 263.919 303.859 263.919z"/>
    <path fill="#878787" d="M447.956 223.891v-9.936c0-12.082-9.83-21.911-21.911-21.911h-59.899c-12.082 0-21.911 9.83-21.911 21.911v9.936h15.663v-9.936c0-3.446 2.804-6.248 6.248-6.248h59.899c3.446 0 6.248 2.804 6.248 6.248v9.936h15.663z"/>
</svg>
