<svg xmlns="http://www.w3.org/2000/svg" width="512" height="512" enable-background="new 0 0 512.001 512.001" viewBox="0 0 512.001 512.001">
    <path fill="#878787" d="M288.02 104.065H344.056V119.743H288.02z"/>
    <path fill="#878787" d="M416.104 216.143c-16.854 0-32.704 4.377-46.481 12.043l-34.934-52.402h29.381c19.771 0 35.857-16.086 35.857-35.857 0-19.772-16.086-35.858-35.857-35.858h-12.007v15.678h12.007c11.127 0 20.179 9.053 20.179 20.18s-9.052 20.179-20.179 20.179h-60.04v15.678h11.816l16.231 24.348H191.792V167.78h32.021v-7.839c0-17.565-14.29-31.855-31.855-31.855h-71.881v7.839c0 17.565 14.29 31.855 31.855 31.855h24.182v37.162l-25.69 28.259c-15.492-10.748-34.286-17.058-54.528-17.058C43.018 216.143 0 259.162 0 312.04s43.018 95.895 95.895 95.895c41.152 0 76.33-26.058 89.909-62.539l54.306 5.717.045.008v17.121h-8.171v15.678h32.021v-15.678h-8.17v-17.121c17.442-3.493 30.8-18.404 31.933-36.578l60.292-90.437 8.53 12.796c-22.15 17.581-36.383 44.728-36.383 75.14 0 52.877 43.019 95.895 95.896 95.895s95.896-43.018 95.896-95.895-43.019-95.899-95.895-95.899zm-264.172-64.04c-6.077 0-11.383-3.37-14.147-8.338h54.174c6.077 0 11.383 3.37 14.147 8.338h-54.174zm.065 102.674c7.415 7.264 13.43 15.948 17.596 25.613l-45.206 4.758 27.61-30.371zm-56.102 137.48c-44.231 0-80.217-35.986-80.217-80.217 0-44.232 35.986-80.218 80.217-80.218 16.182 0 31.25 4.832 43.867 13.107l-38.805 42.686-5.605.589c-12.9.291-23.305 10.867-23.305 23.836s10.405 23.543 23.305 23.836l74.242 7.815c-12.304 28.534-40.702 48.566-73.699 48.566zm8.172-80.217c0 4.506-3.666 8.17-8.172 8.17s-8.17-3.666-8.17-8.17c0-4.507 3.666-8.171 8.17-8.171 4.507-.001 8.172 3.665 8.172 8.171zm70.357 16.393l-57.063-6.006c1.526-3.142 2.384-6.665 2.384-10.387s-.858-7.246-2.384-10.387l57.063-6.007c1.105 5.295 1.69 10.777 1.69 16.395 0 5.616-.586 11.098-1.69 16.392zm39.427 4.149l-23.768-2.502c1.117-5.846 1.71-11.875 1.71-18.041 0-6.167-.592-12.197-1.71-18.042l23.768-2.502c-3.626 6.003-5.716 13.034-5.716 20.544 0 7.508 2.09 14.541 5.716 20.543zm41.983 2.327V312.04h-15.678v22.869c-9.497-3.264-16.343-12.279-16.343-22.869 0-11.487 8.054-21.123 18.81-23.573l5.705-.601c13.18.181 23.848 10.952 23.848 24.174-.001 10.59-6.846 19.605-16.342 22.869zm27.295-41.672c-6.729-12.522-19.952-21.057-35.134-21.057l-62.191 6.503c-5.04-13.543-13.058-25.645-23.252-35.515l24.869-27.356h147.325l-51.617 77.425zm132.975 99.02c-44.232 0-80.218-35.986-80.218-80.217 0-24.978 11.479-47.321 29.434-62.044l44.262 66.393 13.044-8.696-44.271-66.408c11.258-6.031 24.109-9.462 37.749-9.462 44.232 0 80.218 35.986 80.218 80.218 0 44.23-35.986 80.216-80.218 80.216z"/>
</svg>
