<svg xmlns="http://www.w3.org/2000/svg" width="512" height="512" enable-background="new 0 0 60 60" viewBox="0 0 60 60">
    <path fill="#878787" d="M50.25 11c-1.563-.838-11.282-6.07-16.623-9.421C32.715.612 31.431 0 30 0s-2.715.612-3.627 1.579C21.031 4.929 11.313 10.162 9.75 11H0v49h60V11h-9.75zM32.223 3.004c.004.005.005.011.01.016.243.273.511.686.657 1.216.012.045.032.087.042.134.042.194.068.404.068.63 0 1.654-1.346 3-3 3s-3-1.346-3-3c0-.226.026-.436.069-.63.01-.046.029-.087.041-.132.146-.532.414-.944.657-1.218.004-.005.005-.011.01-.016C28.327 2.393 29.115 2 30 2s1.673.393 2.223 1.004zm-7.217 1.75C25.002 4.836 25 4.918 25 5c0 2.757 2.243 5 5 5s5-2.243 5-5c0-.082-.002-.164-.006-.246C38.587 6.89 43.029 9.351 46.051 11H13.949c3.022-1.649 7.464-4.11 11.057-6.246zM10 13h48v5H2v-5h8zM2 58V20h56v38H2z"/>
    <circle cx="23" cy="28" r="1" fill="#878787"/>
    <circle cx="30" cy="28" r="1" fill="#878787"/>
    <circle cx="37" cy="28" r="1" fill="#878787"/>
    <circle cx="44" cy="28" r="1" fill="#878787"/>
    <circle cx="51" cy="28" r="1" fill="#878787"/>
    <circle cx="9" cy="36" r="1" fill="#878787"/>
    <circle cx="16" cy="36" r="1" fill="#878787"/>
    <circle cx="23" cy="36" r="1" fill="#878787"/>
    <circle cx="30" cy="36" r="1" fill="#878787"/>
    <circle cx="37" cy="36" r="1" fill="#878787"/>
    <circle cx="44" cy="36" r="1" fill="#878787"/>
    <circle cx="51" cy="36" r="1" fill="#878787"/>
    <circle cx="9" cy="43" r="1" fill="#878787"/>
    <circle cx="16" cy="43" r="1" fill="#878787"/>
    <circle cx="23" cy="43" r="1" fill="#878787"/>
    <circle cx="30" cy="43" r="1" fill="#878787"/>
    <circle cx="37" cy="43" r="1" fill="#878787"/>
    <circle cx="44" cy="43" r="1" fill="#878787"/>
    <circle cx="51" cy="43" r="1" fill="#878787"/>
    <circle cx="9" cy="51" r="1" fill="#878787"/>
    <circle cx="16" cy="51" r="1" fill="#878787"/>
    <circle cx="23" cy="51" r="1" fill="#878787"/>
    <circle cx="30" cy="51" r="1" fill="#878787"/>
    <circle cx="37" cy="51" r="1" fill="#878787"/>
</svg>
