<svg xmlns="http://www.w3.org/2000/svg" width="512" height="512" enable-background="new 0 0 512 512" viewBox="0 0 512 512">
    <path fill="#878787" d="M311.883 15.71L360.06 15.71 360.06 0 296.172 0 296.172 135.93 311.883 135.93zM159.942 256.152H175.95100000000002V271.86199999999997H159.942zM183.958 272.155H199.968V287.86499999999995H183.958zM239.991 280.168H256V295.878H239.991zM215.975 296.171H231.98399999999998V311.881H215.975zM328.042 272.155H344.05199999999996V287.86499999999995H328.042zM272.009 256.152H288.019V271.86199999999997H272.009z"/>
    <path fill="#878787" d="M168.097 144.084v31.243c-18.402-3.664-32.317-19.933-32.317-39.396 0-22.152 18.022-40.172 40.172-40.172s40.172 18.022 40.172 40.172h15.71c0-30.814-25.07-55.883-55.883-55.883s-55.883 25.07-55.883 55.883c0 28.148 20.922 51.489 48.028 55.32v8.388c-31.7-3.886-56.331-30.976-56.331-63.709 0-35.392 28.794-64.187 64.186-64.187 35.393 0 64.187 28.794 64.187 64.187h15.71c0-44.055-35.843-79.898-79.898-79.898S96.056 91.874 96.056 135.93s35.842 79.898 79.897 79.898h7.855v-56.032H432.08c-4.126 93.552-81.528 168.396-176.08 168.396S84.046 253.347 79.921 159.794h7.981v-15.71H64.037v7.855c0 103.216 81.889 187.652 184.107 191.789v104.385h15.71V343.728c102.22-4.136 184.107-88.572 184.107-191.789v-7.855H168.097z"/>
    <path fill="#878787" d="M296.172 167.948L296.172 224.131 111.915 224.131 111.915 239.841 296.172 239.841 296.172 304.028 311.883 304.028 311.883 239.841 400.084 239.841 400.084 224.131 311.883 224.131 311.883 167.948zM324.039 464.271h-60.184v-8.155h-15.71v8.155h-59.951c-19.699 0-35.739 15.959-35.87 35.628L151.615 512h209.004l-.709-12.1c-.131-19.669-16.172-35.629-35.871-35.629zM168.402 496.29c1.804-9.281 9.992-16.308 19.791-16.308h135.845c9.8 0 17.989 7.028 19.792 16.308H168.402z"/>
</svg>
