<svg xmlns="http://www.w3.org/2000/svg" width="512" height="512" enable-background="new 0 0 512 512" viewBox="0 0 512 512">
    <path fill="#878787" d="M104.005 0H120.005V119.998H104.005zM136.296 0H152.296V119.998H136.296z"/>
    <path fill="#878787" d="M168 160.001c0 22.057-17.944 40-39.999 40s-39.999-17.945-39.999-40V0H72v160.001c0 28.162 20.899 51.524 48 55.419V512h16V215.419c27.101-3.895 48-27.257 48-55.419V0h-16v160.001zM280 .001c-30.878 0-56 25.12-56 55.999v104c0 28.252 21.034 51.67 48.262 55.452V512h16V215.387C315.236 211.381 336 188.072 336 160.001V56C336 25.121 310.879.001 280 .001zm40.001 160c0 22.057-17.944 40-40 40s-39.999-17.945-39.999-40V56c0-22.056 17.944-39.999 40-39.999S320.001 33.946 320.001 56v104.001z"/>
    <path fill="#878787" d="M296 160.001c0 8.822-7.178 16-16 16V192c17.645 0 32.001-14.354 32.001-31.999v-24H296v24zM384.001.001h-8V512h16V16.804C410.235 20.521 424 36.683 424 56v208.001h-24.001V280h40V56C440.001 25.121 414.878.001 384.001.001z"/>
</svg>
