<svg xmlns="http://www.w3.org/2000/svg" width="512" height="512" enable-background="new 0 0 512 512" viewBox="0 0 512 512">
    <path fill="#878787" d="M0 296v56h64v39.999h16V352h352v39.999h16V352h64v-56H0zm496.001 40.001H16v-24.002h480v24.002zM448 288v-16.692C448 249.634 430.366 232 408.691 232H103.309C81.634 232 64 249.634 64 271.309V288h16v-16.692C80 258.456 90.456 248 103.309 248h305.382C421.544 248 432 258.456 432 271.309V288h16z"/>
    <path fill="#878787" d="M48 136L464.001 136 464.001 288 480 288 480 120.001 32 120.001 32 288 48 288z"/>
    <path fill="#878787" d="M248 224v-19.92c0-15.484-12.597-28.08-28.08-28.08h-79.838c-15.484 0-28.081 12.596-28.081 28.08V224h16v-19.92c0-6.662 5.419-12.081 12.081-12.081h79.838c6.661 0 12.08 5.419 12.08 12.081V224h16zM400 224v-19.92c0-15.484-12.597-28.08-28.081-28.08H292.08c-15.483 0-28.08 12.596-28.08 28.08V224h16v-19.92c0-6.662 5.419-12.081 12.08-12.081h79.838c6.662 0 12.081 5.419 12.081 12.081V224H400z"/>
</svg>
