<svg xmlns="http://www.w3.org/2000/svg" width="512" height="512" enable-background="new 0 0 512.002 512.002" viewBox="0 0 512.002 512.002">
    <path fill="#878787" d="M472.305 223.98H487.979V288.023H472.305zM496.328 223.98H512.002V288.023H496.328zM363.432 148.569c-28.696-28.696-66.849-44.5-107.432-44.5s-78.736 15.804-107.432 44.5c-20.897 20.897-35.025 46.915-41.13 75.579H0v63.706h107.438c6.105 28.663 20.232 54.681 41.13 75.579 28.696 28.696 66.849 44.5 107.432 44.5s78.736-15.804 107.432-44.5c20.898-20.898 35.025-46.916 41.129-75.579h59.407v-63.706h-59.407c-6.104-28.663-20.232-54.682-41.129-75.579zm25.056 75.579h-89.552l58.78-58.78c15.047 16.846 25.547 36.9 30.772 58.78zm-228.836-64.496c25.735-25.735 59.952-39.909 96.349-39.909 33.771 0 65.661 12.21 90.646 34.529l-69.876 69.876H123.512c5.829-24.404 18.197-46.553 36.14-64.496zm101.444 80.17l-32.358 32.358h-44.954v-32.358h77.312zM15.674 272.18v-32.358H168.11v32.358H15.674zm107.839 15.674h89.552l-58.78 58.78c-15.048-16.847-25.547-36.901-30.772-58.78zm228.836 64.496c-25.735 25.735-59.952 39.909-96.349 39.909-33.771 0-65.661-12.21-90.646-34.529l69.876-69.876h153.257c-5.828 24.403-18.195 46.552-36.138 64.496zm95.945-80.17h-197.39l32.358-32.358h165.033v32.358h-.001z"/>
</svg>
