<svg xmlns="http://www.w3.org/2000/svg" width="512" height="512" enable-background="new 0 0 227.636 227.636" viewBox="0 0 227.636 227.636">
    <path fill="#878787" d="M223.061 0H4.575C2.049 0 .001 2.048.001 4.574v218.488c0 2.526 2.048 4.574 4.574 4.574H137.83c2.526 0 4.573-2.048 4.573-4.574s-2.047-4.574-4.573-4.574H9.149V111.881h63.798v43.849c0 2.526 2.048 4.574 4.574 4.574s4.574-2.048 4.574-4.574V59.96c0-2.526-2.048-4.574-4.574-4.574s-4.574 2.048-4.574 4.574v42.773H9.149V9.148h124.108v57.271c0 2.526 2.047 4.574 4.573 4.574h48.372c2.526 0 4.573-2.048 4.573-4.574s-2.047-4.574-4.573-4.574h-43.799V9.148h76.085v142.009H137.83c-2.526 0-4.573 2.048-4.573 4.574s2.047 4.574 4.573 4.574h80.658v58.185h-32.286c-2.526 0-4.573 2.048-4.573 4.574s2.047 4.574 4.573 4.574h36.859c2.526 0 4.573-2.048 4.573-4.574V4.574C227.635 2.048 225.588 0 223.061 0z"/>
</svg>
