<svg xmlns="http://www.w3.org/2000/svg" width="512" height="512" enable-background="new 0 0 512.002 512.002" viewBox="0 0 512.002 512.002">
    <path fill="#878787" d="M456.116 223.834c0-110.344-89.771-200.115-200.115-200.115S55.886 113.489 55.886 223.834v8.005h400.23v-8.005zm-384.048-8.005c3.618-84.102 63.926-153.765 143.586-171.646-5.652 4.316-11.563 9.485-17.47 15.668-15.851 16.59-28.457 37.093-37.469 60.938-10.362 27.416-15.965 59.359-16.691 95.04H72.068zm175.929 0h-87.952c1.338-61.72 18.204-111.455 49.007-144.171 14.699-15.613 29.532-24.11 38.946-28.389v172.56h-.001zm16.01 0V43.226c9.214 4.168 23.659 12.427 38.237 27.686 31.257 32.715 48.369 82.708 49.716 144.918h-87.953v-.001zm103.971 0c-.726-35.681-6.327-67.624-16.69-95.04-9.012-23.845-21.619-44.348-37.469-60.938-5.907-6.182-11.818-11.353-17.47-15.668 79.66 17.881 139.969 87.544 143.586 171.646h-71.957zM247.997 463.972H264.007V512.002H247.997zM247.997 239.845H264.007V367.91700000000003H247.997z"/>
    <path fill="#878787" d="M47.881 415.944v40.023h24.014v56.032h16.011v-56.032h336.779v56.032h16.01v-56.032h23.426v-40.023H47.881zm400.23 24.014H63.891v-8.005h384.22v8.005zM171.954 407.94v-2.875c0-16.07-13.074-29.144-29.144-29.144H89.033c-16.07 0-29.144 13.073-29.144 29.144v2.875h16.01v-2.875c0-7.242 5.892-13.134 13.133-13.134h53.777c7.242 0 13.133 5.893 13.133 13.134v2.875h16.012zM452.114 407.94v-2.875c0-16.07-13.074-29.144-29.144-29.144H209.1c-16.07 0-29.144 13.073-29.144 29.144v2.875h16.01v-2.875c0-7.242 5.892-13.134 13.133-13.134h213.87c7.242 0 13.133 5.893 13.133 13.134v2.875h16.012zM248.007 0H264V16.011H248.007z"/>
</svg>
