<svg xmlns="http://www.w3.org/2000/svg" width="512" height="512" enable-background="new 0 0 512 512" viewBox="0 0 512 512">
    <path fill="#878787" d="M104.075 439.947h87.692V232.169h-87.692v207.778zm15.64-192.138h56.412v176.499h-56.412V247.809z"/>
    <path fill="#878787" d="M127.903 264.19H143.91400000000002V279.83H127.903zM151.926 264.19H167.93699999999998V279.83H151.926zM127.903 296.221H143.91400000000002V311.861H127.903zM151.926 296.221H167.93699999999998V311.861H151.926zM127.903 328.241H143.91400000000002V343.881H127.903zM151.926 328.241H167.93699999999998V343.881H151.926zM127.903 360.261H143.91400000000002V375.901H127.903zM151.926 360.261H167.93699999999998V375.901H151.926zM135.911 392.281H159.934V407.921H135.911z"/>
    <path fill="#878787" d="M0 72.053L0 327.866 48.034 327.866 48.034 360.076 63.674 360.076 63.674 327.866 95.887 327.866 95.887 312.227 15.64 312.227 15.64 87.693 496.36 87.693 496.36 280.203 480.162 280.203 480.162 295.843 496.36 295.843 496.36 312.227 199.958 312.227 199.958 327.866 448.325 327.866 448.325 360.076 463.965 360.076 463.965 327.866 512 327.866 512 72.053z"/>
    <path fill="#878787" d="M384.096 280.205H400.107V295.84499999999997H384.096zM416.116 280.205H432.127V295.84499999999997H416.116zM448.136 280.205H464.14700000000005V295.84499999999997H448.136zM239.989 104.079H272.012V119.719H239.989zM199.962 280.205H368.081V295.84499999999997H199.962zM23.831 280.205H95.879V295.84499999999997H23.831z"/>
</svg>
